<svg width="89" height="89" viewBox="0 0 89 89" fill="none" xmlns="http://www.w3.org/2000/svg">
<g clip-path="url(#clip0_676_641)">
<path d="M0 44.501C0 69.0796 19.9217 89.0007 44.4993 89C69.0783 89.0007 89 69.0796 89 44.501C89.0016 19.9224 69.0783 0 44.4993 0C19.9217 0 0 19.9231 0 44.501Z" fill="#5D9BEB"/>
<path d="M86.7388 58.5045L45.371 17.1369C44.8897 16.6555 44.1101 16.6555 43.6288 17.1369L35.0036 25.7621C34.5223 26.2434 34.5223 27.0232 35.0036 27.5047C35.0387 27.5398 35.0844 27.5537 35.1225 27.5834C35.1526 27.6215 35.1663 27.6672 35.2012 27.7023C35.2363 27.7374 35.2821 27.7513 35.3201 27.7811C35.3502 27.8191 35.3639 27.8649 35.3989 27.9C35.4338 27.9351 43.2516 35.7302 43.2676 35.7485V37.724C43.2676 38.116 43.4617 38.4494 43.7463 38.6751C43.8054 38.7498 43.8692 38.8136 43.9439 38.8727C44.003 38.9474 46.4171 41.367 46.4789 41.4193H24.7851C22.067 41.4193 19.8564 43.5612 19.8564 46.194V67.4487C19.8564 68.8066 20.451 70.0265 21.3934 70.8969C21.4584 70.9641 21.5222 71.0309 21.591 71.0945C21.656 71.1618 38.9213 88.4301 38.9903 88.4939C39.0484 88.5542 39.1063 88.6131 39.1668 88.6706C40.9164 88.8796 42.6932 88.9995 44.4991 88.9995C64.1836 89.0004 80.8695 76.2181 86.7388 58.5045Z" fill="#4988DB"/>
<path d="M64.2147 41.4194H24.7853C22.0671 41.4194 19.8566 43.5613 19.8566 46.1941V67.4492C19.8566 70.082 22.0671 72.2239 24.7853 72.2239H64.2149C66.933 72.2239 69.1436 70.082 69.1436 67.4492V46.1941C69.1436 43.5615 66.933 41.4194 64.2147 41.4194ZM64.2147 43.8838C64.4395 43.8838 64.6531 43.9212 64.86 43.9744L44.5011 64.3748L24.1772 43.9636C24.3728 43.9165 24.5743 43.8838 24.7853 43.8838H64.2147ZM66.6793 67.4492C66.6793 68.7235 65.5734 69.7595 64.2149 69.7595H24.7853C23.4268 69.7595 22.3209 68.7233 22.3209 67.4492V46.1941C22.3209 46.0115 22.3493 45.8359 22.3924 45.6654L43.6267 66.9894C43.8577 67.2204 44.1718 67.3515 44.4991 67.3515C44.5002 67.3515 44.5002 67.3515 44.5002 67.3515C44.8275 67.3515 45.1416 67.2214 45.3726 66.9894L66.6195 45.6998C66.6567 45.8594 66.6794 46.0241 66.6794 46.1941L66.6793 67.4492Z" fill="#F4F6F9"/>
<path d="M36.7459 27.5048L43.2677 20.983V37.7244C43.2677 38.4054 43.8188 38.9564 44.4998 38.9564C45.1809 38.9564 45.7319 38.4054 45.7319 37.7244V20.983L52.2538 27.5048C52.4945 27.7456 52.8097 27.8659 53.125 27.8659C53.4403 27.8659 53.7557 27.7456 53.9962 27.5048C54.4776 27.0235 54.4776 26.2439 53.9962 25.7625L45.3711 17.1374C44.8897 16.656 44.1101 16.656 43.6288 17.1374L35.0036 25.7625C34.5223 26.2439 34.5223 27.0235 35.0036 27.5048C35.4849 27.9862 36.2647 27.9862 36.7459 27.5048Z" fill="#F4F6F9"/>
</g>
<defs>
<clipPath id="clip0_676_641">
<rect width="89" height="89" fill="white"/>
</clipPath>
</defs>
</svg>
