<svg width="82" height="82" viewBox="0 0 82 82" fill="none" xmlns="http://www.w3.org/2000/svg">
<g clip-path="url(#clip0_676_676)">
<path d="M65.1507 1.12305H16.8493C8.16407 1.12305 1.12329 8.16383 1.12329 16.8491V65.1504C1.12329 73.8357 8.16407 80.8765 16.8493 80.8765H65.1507C73.8359 80.8765 80.8767 73.8357 80.8767 65.1504V16.8491C80.8767 8.16383 73.8359 1.12305 65.1507 1.12305Z" fill="white" stroke="#7F3208" stroke-width="21.9178"/>
<path d="M57.1529 19.2305H24.8471C23.6064 19.2305 22.6005 20.2363 22.6005 21.477V64.2968C22.6005 65.5375 23.6064 66.5434 24.8471 66.5434H57.1529C58.3936 66.5434 59.3994 65.5375 59.3994 64.2968V21.477C59.3994 20.2363 58.3936 19.2305 57.1529 19.2305Z" fill="#D8D7DA"/>
<path d="M53.6482 15.7256H21.3425C20.1017 15.7256 19.0959 16.7314 19.0959 17.9722V60.7919C19.0959 62.0326 20.1017 63.0385 21.3425 63.0385H53.6482C54.889 63.0385 55.8948 62.0326 55.8948 60.7919V17.9722C55.8948 16.7314 54.889 15.7256 53.6482 15.7256Z" fill="#E6E7E8"/>
<path d="M22.6005 64.791H55.8948C56.8614 64.7881 57.6442 64.0053 57.6471 63.0387V19.2305H55.8948V61.2864C55.8919 62.2529 55.109 63.0358 54.1425 63.0387H22.6005V64.791Z" fill="#C6C5CA"/>
<path d="M27.8575 15.7256V21.8587L26.1052 19.2302L24.3529 21.8587V15.7256H27.8575Z" fill="#F36518"/>
<path d="M55.8948 48.1436H57.6471V49.8959H55.8948V48.1436Z" fill="#ACABB1"/>
<path d="M57.6471 48.1436H59.3995V49.8959H57.6471V48.1436Z" fill="#C6C5CA"/>
<path d="M55.8948 32.9951V61.2865C55.8919 62.2531 55.1091 63.0359 54.1425 63.0388H23.9236C30.3053 59.2863 36.2806 54.8819 41.7535 49.8963C42.3756 49.3356 42.9977 48.7486 43.611 48.144C48.3291 43.6336 52.4566 38.5434 55.8948 32.9951Z" fill="#E0E0E2"/>
<path d="M55.8948 48.1436V49.8959H29.6099C28.6433 49.893 27.8604 49.1101 27.8575 48.1436H55.8948Z" fill="#D1D3D4"/>
<path d="M55.8948 48.1436V49.8959H41.7535C42.3756 49.3351 42.9976 48.7481 43.611 48.1436H55.8948Z" fill="#BCBEC0"/>
<path d="M60.6575 27.1152H28.3518C27.111 27.1152 26.1052 28.1211 26.1052 29.3618V45.8966C26.1052 47.1374 27.111 48.1432 28.3518 48.1432H60.6575C61.8983 48.1432 62.9041 47.1374 62.9041 45.8966V29.3618C62.9041 28.1211 61.8983 27.1152 60.6575 27.1152Z" fill="#F36518"/>
<path d="M33.9907 36.7539H30.486V32.373H28.7337V42.887H30.486V38.5062H33.9907V42.887H35.743V32.373H33.9907V36.7539Z" fill="white"/>
<path d="M37.4953 34.1254H40.1238V42.887H41.8762V34.1254H44.5046V32.373H37.4953V34.1254Z" fill="white"/>
<path d="M56.7709 41.1347V32.373H55.0186V42.0109C55.0186 42.4947 55.4109 42.887 55.8948 42.887H60.2756V41.1347H56.7709Z" fill="white"/>
<path d="M52.7257 32.4398C52.3982 32.3041 52.0212 32.3792 51.7707 32.6299L49.7616 34.6389L47.7526 32.6299C47.502 32.3794 47.1252 32.3045 46.7979 32.44C46.4705 32.5756 46.257 32.895 46.257 33.2493V42.8871H48.0093V35.3644L49.1422 36.4973C49.4843 36.8393 50.0389 36.8393 50.3811 36.4973L51.514 35.3644V42.8871H53.2663V33.2493C53.2664 32.895 53.053 32.5755 52.7257 32.4398Z" fill="white"/>
</g>
<defs>
<clipPath id="clip0_676_676">
<rect width="82" height="82" fill="white"/>
</clipPath>
</defs>
</svg>
