<svg width="89" height="89" viewBox="0 0 89 89" fill="none" xmlns="http://www.w3.org/2000/svg">
<g clip-path="url(#clip0_677_725)">
<path d="M88.9999 44.5009C88.9999 69.0792 69.0782 89.0004 44.5008 88.9997C19.9219 89.0004 0.000259455 69.0794 0.000259455 44.5009C-0.000957337 19.9224 19.9219 0 44.5008 0C69.0782 0 88.9999 19.9231 88.9999 44.5009Z" fill="#FA6E51"/>
<path d="M86.7291 58.5329C86.6815 58.4788 86.634 58.4259 86.5765 58.3802C86.5174 58.3055 86.4533 58.2415 86.3785 58.1824C86.3194 58.1078 45.7232 17.5118 45.6488 17.4527C45.5897 17.3782 45.5258 17.3142 45.4512 17.2551C45.2254 16.9704 44.8918 16.7764 44.5002 16.7764C43.8196 16.7764 43.2679 17.3274 43.2679 18.0085V34.751L37.9325 29.4155L36.7459 28.2292C36.2646 27.7478 35.485 27.7478 35.0036 28.2292C34.5223 28.7105 34.5223 29.4903 35.0036 29.9718L46.4517 41.4199H24.7854C22.0677 41.4199 19.8567 43.5618 19.8567 46.1946V67.4493C19.8567 68.8071 20.4513 70.0274 21.3938 70.8975C21.4587 70.9648 21.5226 71.0316 21.5915 71.0952C21.6563 71.1625 38.9217 88.4306 38.9907 88.4944C39.0488 88.5548 39.1068 88.6137 39.1675 88.6712C40.9174 88.8802 42.6946 89.0003 44.501 89.0003C64.1734 89.0001 80.8511 76.2314 86.7291 58.5329Z" fill="#E8573F"/>
<path d="M64.2148 41.4199H24.7854C22.0677 41.4199 19.8567 43.5618 19.8567 46.1946V67.4495C19.8567 70.0823 22.0677 72.2242 24.7854 72.2242H64.2148C66.9324 72.2242 69.1435 70.0823 69.1435 67.4495V46.1946C69.1435 43.562 66.9324 41.4199 64.2148 41.4199ZM64.2148 43.8843C64.4396 43.8843 64.6532 43.9216 64.8602 43.9748L44.5012 64.3752L24.1768 43.9642C24.3725 43.9171 24.5742 43.8844 24.7854 43.8844L64.2148 43.8843ZM66.6792 67.4495C66.6792 68.7239 65.574 69.7599 64.2148 69.7599H24.7854C23.4262 69.7599 22.321 68.7237 22.321 67.4495V46.1946C22.321 46.0117 22.3493 45.836 22.3925 45.6655L43.627 66.9899C43.8581 67.221 44.1722 67.352 44.4995 67.352H44.5002C44.8275 67.352 45.1409 67.222 45.3726 66.9899L66.6194 45.7004C66.6566 45.86 66.679 46.0248 66.679 46.1948V67.4495H66.6792Z" fill="#F4F6F9"/>
<path d="M43.6288 38.5968C43.8695 38.8375 44.1847 38.9578 44.5 38.9578C44.8153 38.9578 45.1307 38.8375 45.3712 38.5968L53.9964 29.9716C54.4777 29.4903 54.4777 28.7107 53.9964 28.2293C53.515 27.748 52.7354 27.748 52.2541 28.2293L45.7323 34.7512V18.0085C45.7323 17.3274 45.1805 16.7764 44.5002 16.7764C43.8198 16.7764 43.2681 17.3274 43.2681 18.0085V34.751L36.7463 28.2292C36.2649 27.7478 35.4853 27.7478 35.004 28.2292C34.5227 28.7105 34.5227 29.4901 35.004 29.9714L43.6288 38.5968Z" fill="#F4F6F9"/>
</g>
<defs>
<clipPath id="clip0_677_725">
<rect width="89" height="89" fill="white"/>
</clipPath>
</defs>
</svg>
