<svg width="90" height="90" viewBox="0 0 90 90" fill="none" xmlns="http://www.w3.org/2000/svg">
<g clip-path="url(#clip0_674_516)">
<path d="M70.0047 90H19.9953C8.9979 90 0 81.0021 0 70.0047V19.9953C0 8.9979 8.9979 0 19.9953 0H70.0047C81.0021 0 90 8.9979 90 19.9953V70.0047C90 81.0021 81.0021 90 70.0047 90Z" fill="#E54C4C"/>
<g opacity="0.1">
<path d="M72.0703 15.4154C72.0703 12.9207 70.048 10.8984 67.5534 10.8984H26.8411C24.3465 10.8984 22.3242 12.9207 22.3242 15.4154V79.155C22.3242 81.6496 24.3465 83.6719 26.8411 83.6719H67.5534C70.048 83.6719 72.0703 81.6496 72.0703 79.155V15.4154Z" fill="black"/>
</g>
<path d="M65.3745 80.3407H24.6255C22.7134 80.3407 21.1633 78.7906 21.1633 76.8784V13.1214C21.1633 11.2093 22.7134 9.65918 24.6255 9.65918H65.3745C67.2866 9.65918 68.8367 11.2093 68.8367 13.1214V76.8785C68.8367 78.7906 67.2866 80.3407 65.3745 80.3407Z" fill="#EAEAEA"/>
<path d="M65.3745 81.3954H24.6255C22.1349 81.3954 20.1086 79.3691 20.1086 76.8785V13.1214C20.1086 10.6308 22.1349 8.60449 24.6255 8.60449H65.3745C67.8651 8.60449 69.8914 10.6308 69.8914 13.1214V76.8785C69.8914 79.3691 67.8651 81.3954 65.3745 81.3954ZM24.6255 10.7139C23.298 10.7139 22.218 11.794 22.218 13.1214V76.8785C22.218 78.206 23.298 79.2861 24.6255 79.2861H65.3745C66.7019 79.2861 67.782 78.206 67.782 76.8785V13.1214C67.782 11.794 66.7019 10.7139 65.3745 10.7139L24.6255 10.7139Z" fill="#333333"/>
<g opacity="0.1">
<path d="M65.5664 23.2392C65.5664 22.0543 64.6059 21.0938 63.421 21.0938H29.2157C28.0309 21.0938 27.0703 22.0543 27.0703 23.2392V30.1983C27.0703 31.3832 28.0309 34.2773 29.2157 34.2773H63.421C64.6059 34.2773 65.5664 33.3168 65.5664 32.1319V23.2392Z" fill="black"/>
</g>
<path d="M62.1235 31.8559H27.8765C27.2741 31.8559 26.7858 31.3676 26.7858 30.7652V21.8329C26.7858 21.2305 27.2741 20.7422 27.8765 20.7422H62.1235C62.7259 20.7422 63.2142 21.2305 63.2142 21.8329V30.7652C63.2142 31.3676 62.7259 31.8559 62.1235 31.8559Z" fill="#FFC50D"/>
<path d="M62.1236 32.9106H27.8764C26.6935 32.9106 25.731 31.9481 25.731 30.7652V21.8329C25.731 20.65 26.6935 19.6875 27.8764 19.6875H62.1236C63.3065 19.6875 64.269 20.65 64.269 21.8329V30.7652C64.269 31.9481 63.3065 32.9106 62.1236 32.9106ZM27.8764 21.7969C27.8565 21.7969 27.8404 21.813 27.8404 21.8329V30.7652C27.8404 30.7851 27.8565 30.8012 27.8764 30.8012H62.1236C62.1435 30.8012 62.1596 30.7851 62.1596 30.7652V21.8329C62.1596 21.813 62.1435 21.7969 62.1236 21.7969H27.8764Z" fill="#333333"/>
<g opacity="0.1">
<path d="M63.6328 17.7539H49.043C48.1692 17.7539 47.4609 17.0456 47.4609 16.1719C47.4609 15.2981 48.1692 14.5898 49.043 14.5898H63.6328C64.5066 14.5898 65.2148 15.2981 65.2148 16.1719C65.2148 17.0456 64.5066 17.7539 63.6328 17.7539Z" fill="black"/>
</g>
<path d="M62.9297 16.6992H48.3398C47.4661 16.6992 46.7578 15.9909 46.7578 15.1172C46.7578 14.2434 47.4661 13.5352 48.3398 13.5352H62.9297C63.8034 13.5352 64.5117 14.2434 64.5117 15.1172C64.5117 15.9909 63.8034 16.6992 62.9297 16.6992Z" fill="#333333"/>
<g opacity="0.1">
<path d="M37.9688 44.3321C37.9688 43.1477 37.0087 42.1875 35.8244 42.1875H28.8631C27.6788 42.1875 26.7188 43.1477 26.7188 44.3321V50.5898C26.7188 51.7742 27.6788 52.7344 28.8631 52.7344H35.8244C37.0087 52.7344 37.9688 51.7742 37.9688 50.5898V44.3321Z" fill="black"/>
<path d="M51.6797 44.3321C51.6797 43.1477 50.7195 42.1875 49.5351 42.1875H42.5743C41.3898 42.1875 40.4297 43.1477 40.4297 44.3321V50.5898C40.4297 51.7742 41.3898 52.7344 42.5743 52.7344H49.5351C50.7195 52.7344 51.6797 51.7742 51.6797 50.5898V44.3321Z" fill="black"/>
<path d="M65.3906 44.3321C65.3906 43.1477 64.4305 42.1875 63.2461 42.1875H56.2852C55.1008 42.1875 54.1406 43.1477 54.1406 44.3321V50.5898C54.1406 51.7742 55.1008 52.7344 56.2852 52.7344H63.2461C64.4305 52.7344 65.3906 51.7742 65.3906 50.5898V44.3321Z" fill="black"/>
<path d="M37.9688 56.461C37.9688 55.2766 37.0087 54.3164 35.8244 54.3164H28.8631C27.6788 54.3164 26.7188 55.2766 26.7188 56.461V62.7187C26.7188 63.9031 27.6788 64.8633 28.8631 64.8633H35.8244C37.0087 64.8633 37.9688 63.9031 37.9688 62.7187V56.461Z" fill="black"/>
<path d="M51.6797 56.461C51.6797 55.2766 50.7195 54.3164 49.5351 54.3164H42.5743C41.3898 54.3164 40.4297 55.2766 40.4297 56.461V62.7187C40.4297 63.9031 41.3898 64.8633 42.5743 64.8633H49.5351C50.7195 64.8633 51.6797 63.9031 51.6797 62.7187V56.461Z" fill="black"/>
<path d="M65.3906 56.461C65.3906 55.2766 64.4305 54.3164 63.2461 54.3164H56.2852C55.1008 54.3164 54.1406 55.2766 54.1406 56.461V62.7187C54.1406 63.9031 55.1008 64.8633 56.2852 64.8633H63.2461C64.4305 64.8633 65.3906 63.9031 65.3906 62.7187V56.461Z" fill="black"/>
<path d="M37.9688 68.4141C37.9688 67.2297 37.0087 66.2695 35.8244 66.2695H28.8631C27.6788 66.2695 26.7188 67.2297 26.7188 68.4141V74.6718C26.7188 75.8562 27.6788 76.8164 28.8631 76.8164H35.8244C37.0087 76.8164 37.9688 75.8563 37.9688 74.6718V68.4141Z" fill="black"/>
<path d="M51.6797 68.4141C51.6797 67.2297 50.7195 66.2695 49.5351 66.2695H42.5743C41.3898 66.2695 40.4297 67.2297 40.4297 68.4141V74.6718C40.4297 75.8562 41.3898 76.8164 42.5743 76.8164H49.5351C50.7195 76.8164 51.6797 75.8563 51.6797 74.6718V68.4141Z" fill="black"/>
<path d="M65.3906 68.4141C65.3906 67.2297 64.4305 66.2695 63.2461 66.2695H56.2852C55.1008 66.2695 54.1406 67.2297 54.1406 68.4141V74.6718C54.1406 75.8562 55.1008 76.8164 56.2852 76.8164H63.2461C64.4305 76.8164 65.3906 75.8563 65.3906 74.6718V68.4141Z" fill="black"/>
</g>
<path d="M34.9157 50.5669H27.8756C27.2762 50.5669 26.7858 50.0765 26.7858 49.477V43.2778C26.7858 42.6784 27.2762 42.188 27.8756 42.188H34.9157C35.5151 42.188 36.0055 42.6784 36.0055 43.2778V49.477C36.0055 50.0765 35.5151 50.5669 34.9157 50.5669Z" fill="#545A5B"/>
<path d="M34.9157 51.6216H27.8756C26.693 51.6216 25.731 50.6597 25.731 49.4771V43.2779C25.731 42.0953 26.693 41.1333 27.8756 41.1333H34.9157C36.0981 41.1333 37.0601 42.0953 37.0601 43.2779V49.4771C37.0601 50.6597 36.0981 51.6216 34.9157 51.6216ZM27.8756 43.2427C27.8584 43.2427 27.8404 43.2607 27.8404 43.2779V49.4771C27.8404 49.4942 27.8584 49.5123 27.8756 49.5123H34.9157C34.9327 49.5123 34.9508 49.4942 34.9508 49.4771V43.2779C34.9508 43.2607 34.9327 43.2427 34.9157 43.2427H27.8756Z" fill="#333333"/>
<path d="M48.597 50.5669H41.5569C40.9575 50.5669 40.467 50.0765 40.467 49.477V43.2778C40.467 42.6784 40.9575 42.188 41.5569 42.188H48.597C49.1964 42.188 49.6868 42.6784 49.6868 43.2778V49.477C49.6868 50.0765 49.1964 50.5669 48.597 50.5669Z" fill="#545A5B"/>
<path d="M48.597 51.6216H41.5568C40.3744 51.6216 39.4124 50.6597 39.4124 49.4771V43.2779C39.4124 42.0953 40.3744 41.1333 41.5568 41.1333H48.597C49.7796 41.1333 50.7416 42.0953 50.7416 43.2779V49.4771C50.7416 50.6597 49.7796 51.6216 48.597 51.6216ZM41.5568 43.2427C41.5402 43.2427 41.5218 43.261 41.5218 43.2779V49.4771C41.5218 49.4939 41.5402 49.5123 41.5568 49.5123H48.597C48.6142 49.5123 48.6322 49.4942 48.6322 49.4771V43.2779C48.6322 43.2607 48.6142 43.2427 48.597 43.2427H41.5568Z" fill="#333333"/>
<path d="M62.2783 50.5669H55.2382C54.6388 50.5669 54.1483 50.0765 54.1483 49.477V43.2778C54.1483 42.6784 54.6388 42.188 55.2382 42.188H62.2783C62.8777 42.188 63.3681 42.6784 63.3681 43.2778V49.477C63.3681 50.0765 62.8777 50.5669 62.2783 50.5669Z" fill="#545A5B"/>
<path d="M62.2782 51.6216H55.2382C54.0556 51.6216 53.0937 50.6597 53.0937 49.4771V43.2779C53.0937 42.0953 54.0556 41.1333 55.2382 41.1333H62.2782C63.4608 41.1333 64.4228 42.0953 64.4228 43.2779V49.4771C64.4228 50.6597 63.4608 51.6216 62.2782 51.6216ZM55.2382 43.2427C55.2211 43.2427 55.203 43.2607 55.203 43.2779V49.4771C55.203 49.4942 55.2211 49.5123 55.2382 49.5123H62.2782C62.2954 49.5123 62.3134 49.4942 62.3134 49.4771V43.2779C62.3134 43.2607 62.2954 43.2427 62.2782 43.2427H55.2382Z" fill="#333333"/>
<path d="M34.9157 62.6958H27.8756C27.2762 62.6958 26.7858 62.2054 26.7858 61.606V55.4067C26.7858 54.8073 27.2762 54.3169 27.8756 54.3169H34.9157C35.5151 54.3169 36.0055 54.8073 36.0055 55.4067V61.606C36.0055 62.2054 35.5151 62.6958 34.9157 62.6958Z" fill="#545A5B"/>
<path d="M34.9157 63.7505H27.8756C26.693 63.7505 25.731 62.7886 25.731 61.606V55.4068C25.731 54.2242 26.693 53.2622 27.8756 53.2622H34.9157C36.0981 53.2622 37.0601 54.2242 37.0601 55.4068V61.606C37.0601 62.7886 36.0981 63.7505 34.9157 63.7505ZM27.8756 55.3716C27.8584 55.3716 27.8404 55.3896 27.8404 55.4068V61.606C27.8404 61.6231 27.8584 61.6412 27.8756 61.6412H34.9157C34.9327 61.6412 34.9508 61.6231 34.9508 61.606V55.4068C34.9508 55.3896 34.9327 55.3716 34.9157 55.3716H27.8756Z" fill="#333333"/>
<path d="M48.597 62.6958H41.5569C40.9575 62.6958 40.467 62.2054 40.467 61.606V55.4067C40.467 54.8073 40.9575 54.3169 41.5569 54.3169H48.597C49.1964 54.3169 49.6868 54.8073 49.6868 55.4067V61.606C49.6868 62.2054 49.1964 62.6958 48.597 62.6958Z" fill="#545A5B"/>
<path d="M48.597 63.7505H41.5568C40.3744 63.7505 39.4124 62.7886 39.4124 61.606V55.4068C39.4124 54.2242 40.3744 53.2622 41.5568 53.2622H48.597C49.7796 53.2622 50.7416 54.2242 50.7416 55.4068V61.606C50.7416 62.7886 49.7796 63.7505 48.597 63.7505ZM41.5568 55.3716C41.5402 55.3716 41.5218 55.3899 41.5218 55.4068V61.606C41.5218 61.6228 41.5402 61.6412 41.5568 61.6412H48.597C48.6142 61.6412 48.6322 61.6231 48.6322 61.606V55.4068C48.6322 55.3896 48.6142 55.3716 48.597 55.3716H41.5568Z" fill="#333333"/>
<path d="M62.2783 62.6958H55.2382C54.6388 62.6958 54.1483 62.2054 54.1483 61.606V55.4067C54.1483 54.8073 54.6388 54.3169 55.2382 54.3169H62.2783C62.8777 54.3169 63.3681 54.8073 63.3681 55.4067V61.606C63.3681 62.2054 62.8777 62.6958 62.2783 62.6958Z" fill="#545A5B"/>
<path d="M62.2782 63.7505H55.2382C54.0556 63.7505 53.0937 62.7886 53.0937 61.606V55.4068C53.0937 54.2242 54.0556 53.2622 55.2382 53.2622H62.2782C63.4608 53.2622 64.4228 54.2242 64.4228 55.4068V61.606C64.4228 62.7886 63.4608 63.7505 62.2782 63.7505ZM55.2382 55.3716C55.2211 55.3716 55.203 55.3896 55.203 55.4068V61.606C55.203 61.6231 55.2211 61.6412 55.2382 61.6412H62.2782C62.2954 61.6412 62.3134 61.6231 62.3134 61.606V55.4068C62.3134 55.3896 62.2954 55.3716 62.2782 55.3716H55.2382Z" fill="#333333"/>
<path d="M34.9157 74.645H27.8756C27.2762 74.645 26.7858 74.1546 26.7858 73.5552V67.356C26.7858 66.7565 27.2762 66.2661 27.8756 66.2661H34.9157C35.5151 66.2661 36.0055 66.7565 36.0055 67.356V73.5552C36.0055 74.1546 35.5151 74.645 34.9157 74.645Z" fill="#545A5B"/>
<path d="M34.9157 75.6998H27.8756C26.693 75.6998 25.731 74.7378 25.731 73.5552V67.356C25.731 66.1734 26.693 65.2114 27.8756 65.2114H34.9157C36.0981 65.2114 37.0601 66.1734 37.0601 67.356V73.5552C37.0601 74.7378 36.0981 75.6998 34.9157 75.6998ZM27.8756 67.3208C27.8584 67.3208 27.8404 67.3388 27.8404 67.356V73.5552C27.8404 73.5724 27.8584 73.5904 27.8756 73.5904H34.9157C34.9327 73.5904 34.9508 73.5724 34.9508 73.5552V67.356C34.9508 67.3388 34.9327 67.3208 34.9157 67.3208H27.8756Z" fill="#333333"/>
<path d="M48.597 74.645H41.5569C40.9575 74.645 40.467 74.1546 40.467 73.5552V67.356C40.467 66.7565 40.9575 66.2661 41.5569 66.2661H48.597C49.1964 66.2661 49.6868 66.7565 49.6868 67.356V73.5552C49.6868 74.1546 49.1964 74.645 48.597 74.645Z" fill="#545A5B"/>
<path d="M48.597 75.6998H41.5568C40.3744 75.6998 39.4124 74.7378 39.4124 73.5552V67.356C39.4124 66.1734 40.3744 65.2114 41.5568 65.2114H48.597C49.7796 65.2114 50.7416 66.1734 50.7416 67.356V73.5552C50.7416 74.7378 49.7796 75.6998 48.597 75.6998ZM41.5568 67.3208C41.5402 67.3208 41.5218 67.3392 41.5218 67.356V73.5552C41.5218 73.572 41.5402 73.5904 41.5568 73.5904H48.597C48.6142 73.5904 48.6322 73.5724 48.6322 73.5552V67.356C48.6322 67.3388 48.6142 67.3208 48.597 67.3208H41.5568Z" fill="#333333"/>
<path d="M62.2783 74.645H55.2382C54.6388 74.645 54.1483 74.1546 54.1483 73.5552V67.356C54.1483 66.7565 54.6388 66.2661 55.2382 66.2661H62.2783C62.8777 66.2661 63.3681 66.7565 63.3681 67.356V73.5552C63.3681 74.1546 62.8777 74.645 62.2783 74.645Z" fill="#545A5B"/>
<path d="M62.2782 75.6998H55.2382C54.0556 75.6998 53.0937 74.7378 53.0937 73.5552V67.356C53.0937 66.1734 54.0556 65.2114 55.2382 65.2114H62.2782C63.4608 65.2114 64.4228 66.1734 64.4228 67.356V73.5552C64.4228 74.7378 63.4608 75.6998 62.2782 75.6998ZM55.2382 67.3208C55.2211 67.3208 55.203 67.3388 55.203 67.356V73.5552C55.203 73.5724 55.2211 73.5904 55.2382 73.5904H62.2782C62.2954 73.5904 62.3134 73.5724 62.3134 73.5552V67.356C62.3134 67.3388 62.2954 67.3208 62.2782 67.3208H55.2382Z" fill="#333333"/>
<path d="M47.2436 23.7691V25.7437L46.7051 26.2822L46.5255 26.1028V23.4997L47.2436 23.7691ZM49.5773 26.013L49.9365 26.372L49.5773 26.7311H47.2436L46.8847 26.372L47.2436 26.013H49.5773ZM49.5773 25.7437V23.8587L49.8467 23.1406C50.086 23.2005 50.2357 23.3502 50.2956 23.5895V26.1028L50.116 26.2822L49.5773 25.7437ZM50.116 26.4618L50.2956 26.6413V29.1546C50.2357 29.3939 50.086 29.5436 49.8467 29.6033L49.5773 28.8853V27.0003L50.116 26.4618Z" fill="#333333"/>
<path d="M49.8192 29.6555L49.5334 28.8852V26.982L50.116 26.3996L50.3395 26.6231V29.1545C50.2743 29.4205 50.1126 29.5822 49.8573 29.6458L49.8192 29.6555ZM49.6213 28.8773L49.8738 29.5502C50.0757 29.4888 50.2 29.3554 50.253 29.1439L50.2516 26.6595L50.116 26.5238L49.6213 27.0184V28.8773ZM49.5955 26.775H47.2254L46.8225 26.3719L47.2254 25.969H49.5955L49.9986 26.3719L49.5955 26.775ZM47.2618 26.6871H49.5591L49.8743 26.3719L49.5591 26.0569H47.2618L46.9468 26.3719L47.2618 26.6871ZM46.7051 26.3443L46.4816 26.1209V23.4363L47.2875 23.7386V25.7618L46.7051 26.3443ZM46.5695 26.0846L46.7051 26.22L47.1997 25.7254V23.7994L46.5695 23.563V26.0846ZM50.116 26.3443L49.5334 25.7618L49.5361 23.8432L49.8194 23.0884L49.8573 23.098C50.1126 23.1618 50.2743 23.3236 50.3381 23.5788L50.3395 26.1209L50.116 26.3443ZM49.6213 25.7254L50.116 26.22L50.2516 26.0846V23.5895C50.2 23.3879 50.0757 23.2552 49.8736 23.1936L49.6213 23.8665V25.7254Z" fill="#333333"/>
<path d="M51.6865 28.9751V26.6413L51.8661 26.4618L52.4046 27.0003V28.7057L51.6865 28.9751ZM55.0975 29.6033H52.1354C51.896 29.5436 51.7463 29.3939 51.6865 29.1546L52.4046 28.8853H54.8281L55.0975 29.6033ZM54.5589 23.8587H52.4137L51.6956 23.5895C51.7554 23.3502 51.9051 23.2005 52.1444 23.1406H54.8281L54.5589 23.8587ZM54.7383 26.013L55.0975 26.372L54.7383 26.7311H52.4046L52.0457 26.372L52.4046 26.013H54.7383ZM54.7383 25.7437V23.8587L55.0077 23.1406C55.247 23.2005 55.3967 23.3502 55.4566 23.5895V26.1028L55.277 26.2822L54.7383 25.7437Z" fill="#333333"/>
<path d="M55.1608 29.6472H52.1354C51.8694 29.5822 51.7077 29.4205 51.644 29.1652L51.6344 29.1271L52.4046 28.8413H54.8585L55.1608 29.6472ZM51.7396 29.1815C51.801 29.3837 51.9344 29.5078 52.1461 29.5607L55.0341 29.5593L54.7977 28.9292H52.4125L51.7396 29.1815ZM51.6426 29.0383V26.6231L51.8661 26.3996L52.4485 26.982V28.736L51.6426 29.0383ZM51.7305 26.6595V28.9116L52.3607 28.6753V27.0184L51.8661 26.5238L51.7305 26.6595ZM54.7565 26.775H52.3864L51.9835 26.3719L52.3864 25.969H54.7565L55.1596 26.3719L54.7565 26.775ZM52.4228 26.6871H54.7201L55.0353 26.3719L54.7201 26.0569H52.4228L52.1078 26.3719L52.4228 26.6871ZM55.277 26.3443L54.6944 25.7618L54.6971 23.8432L54.9804 23.0884L55.0183 23.098C55.2736 23.1618 55.4353 23.3236 55.4991 23.5788L55.5005 26.1209L55.277 26.3443ZM54.7823 25.7254L55.277 26.22L55.4126 26.0846V23.5895C55.3609 23.3879 55.2367 23.2552 55.0346 23.1936L54.7823 23.8665V25.7254ZM54.5893 23.9026L52.3982 23.8998L51.6435 23.6169L51.6531 23.5788C51.7168 23.3236 51.8785 23.1618 52.1337 23.098L54.8915 23.0966L54.5893 23.9026ZM52.4216 23.8147H54.5286L54.7648 23.1845H52.1444C51.9428 23.2362 51.8101 23.3605 51.7487 23.5623L52.4216 23.8147Z" fill="#333333"/>
<path d="M57.5658 24.0382V25.7437L57.0273 26.2822L56.8477 26.1028V23.7691L57.5658 24.0382ZM56.8477 28.9751V26.6413L57.0273 26.4618L57.5658 27.0003V28.7057L56.8477 28.9751ZM59.9893 29.6033H57.2966C57.0571 29.5436 56.9075 29.3939 56.8477 29.1546L57.5658 28.8853H59.7201L59.9893 29.6033ZM59.7201 23.8587H57.5749L56.8568 23.5895C56.9166 23.3502 57.0662 23.2005 57.3055 23.1406H59.9893L59.7201 23.8587ZM59.8995 25.7437V23.8587L60.1688 23.1406C60.4081 23.2005 60.5578 23.3502 60.6177 23.5895V26.1028L60.4382 26.2822L59.8995 25.7437ZM60.4382 26.4618L60.6177 26.6413V29.1546C60.5578 29.3939 60.4081 29.5436 60.1688 29.6033L59.8995 28.8853V27.0003L60.4382 26.4618Z" fill="#333333"/>
<path d="M60.1414 29.6555L59.8556 28.8852V26.982L60.4382 26.3996L60.6617 26.6231V29.1545C60.5965 29.4205 60.4348 29.5822 60.1795 29.6458L60.1414 29.6555ZM59.9435 28.8773L60.196 29.5502C60.3978 29.4888 60.5221 29.3554 60.5752 29.1439L60.5738 26.6595L60.4382 26.5238L59.9435 27.0184V28.8773ZM60.0526 29.6472H57.2966C57.0305 29.5822 56.8688 29.4205 56.8051 29.1652L56.7955 29.1271L57.5658 28.8413H59.7505L60.0526 29.6472ZM56.9008 29.1815C56.9622 29.3837 57.0956 29.5078 57.3073 29.5607L59.9259 29.5593L59.6897 28.9292H57.5737L56.9008 29.1815ZM56.8038 29.0383V26.6231L57.0273 26.3996L57.6097 26.982V28.736L56.8038 29.0383ZM56.8917 26.6595V28.9116L57.5218 28.6753V27.0184L57.0273 26.5238L56.8917 26.6595ZM57.0273 26.3443L56.8038 26.1209V23.7057L57.6097 24.0078V25.7618L57.0273 26.3443ZM56.8917 26.0846L57.0273 26.22L57.5218 25.7254V24.0686L56.8917 23.8324V26.0846ZM60.4382 26.3443L59.8556 25.7618L59.8583 23.8432L60.1416 23.0884L60.1795 23.098C60.4348 23.1618 60.5965 23.3236 60.6603 23.5788L60.6617 26.1209L60.4382 26.3443ZM59.9435 25.7254L60.4382 26.22L60.5738 26.0846V23.5895C60.5221 23.3879 60.3978 23.2552 60.1958 23.1936L59.9435 23.8665V25.7254ZM59.7505 23.9026L57.5594 23.8998L56.8046 23.6169L56.8142 23.5788C56.8779 23.3236 57.0396 23.1618 57.2949 23.098L60.0526 23.0966L59.7505 23.9026ZM57.5828 23.8147H59.6897L59.9259 23.1845H57.3055C57.104 23.2362 56.9713 23.3605 56.9099 23.5623L57.5828 23.8147Z" fill="#333333"/>
<path d="M30.2344 30.0586C29.6519 30.0586 29.1797 29.5864 29.1797 29.0039V24.082C29.1797 23.4996 29.6519 23.0273 30.2344 23.0273H40.0781C40.6606 23.0273 41.1328 23.4996 41.1328 24.082C41.1328 24.6645 40.6606 25.1367 40.0781 25.1367H31.2891V29.0039C31.2891 29.5864 30.8168 30.0586 30.2344 30.0586Z" fill="white"/>
<path d="M43.916 24.9609C44.4985 24.9609 44.9707 24.4887 44.9707 23.9062C44.9707 23.3238 44.4985 22.8516 43.916 22.8516C43.3335 22.8516 42.8613 23.3238 42.8613 23.9062C42.8613 24.4887 43.3335 24.9609 43.916 24.9609Z" fill="white"/>
</g>
<defs>
<clipPath id="clip0_674_516">
<rect width="90" height="90" fill="white"/>
</clipPath>
</defs>
</svg>
