<svg width="85" height="85" viewBox="0 0 85 85" fill="none" xmlns="http://www.w3.org/2000/svg">
<path d="M58.4375 59.3369H26.5625V77.3224H58.4375V59.3369Z" fill="#333333"/>
<path d="M26.5625 62.4473H45.5281L26.5625 72.0602V62.4473Z" fill="black"/>
<path d="M62.6636 80.99H22.3364C20.7719 80.99 19.4942 79.7097 19.4942 78.1479C19.4942 76.5833 20.7745 75.3057 22.3364 75.3057H62.6609C64.2255 75.3057 65.5031 76.586 65.5031 78.1479C65.5058 79.7097 64.2255 80.99 62.6636 80.99Z" fill="#999999"/>
<path d="M79.6875 62.4473H5.3125C2.39062 62.4473 0 60.0566 0 57.1348V9.32227C0 6.40039 2.39062 4.00977 5.3125 4.00977H79.6875C82.6094 4.00977 85 6.40039 85 9.32227V57.1348C85 60.0566 82.6094 62.4473 79.6875 62.4473Z" fill="#D6D6D6"/>
<path d="M81.3689 7.65137H3.64703V58.8054H81.3689V7.65137Z" fill="#333333"/>
<path d="M61.8269 14.3877H46.9598V16.51H61.8269V14.3877Z" fill="white"/>
<path d="M61.8242 20.335H49.9322V22.4573H61.8242V20.335Z" fill="#0BA4E0"/>
<path d="M41.0125 14.3877H35.0652V16.51H41.0125V14.3877Z" fill="#C8C8C8"/>
<path d="M43.9849 20.335H38.0375V22.4573H43.9849V20.335Z" fill="#0BA4E0"/>
<path d="M69.2617 38.7402H63.3144V40.8626H69.2617V38.7402Z" fill="white"/>
<path d="M54.3947 38.7402H48.4473V40.8626H54.3947V38.7402Z" fill="#0BA4E0"/>
<path d="M43.9848 44.1318H35.0652V46.2542H43.9848V44.1318Z" fill="white"/>
<path d="M76.7045 14.3877H70.7572V16.51H76.7045V14.3877Z" fill="#C8C8C8"/>
<path d="M26.1455 32.2266H14.2508V34.3489H26.1455V32.2266Z" fill="#0BA4E0"/>
<path d="M43.9875 32.2266H32.0928V34.3489H43.9875V32.2266Z" fill="white"/>
<path d="M58.8545 32.2266H46.9598V34.3489H58.8545V32.2266Z" fill="#0BA4E0"/>
<path d="M26.1455 44.1318H14.2508V46.2542H26.1455V44.1318Z" fill="#0BA4E0"/>
<path d="M64.8151 44.1318H55.8955V46.2542H64.8151V44.1318Z" fill="white"/>
<path d="M76.6939 32.2266H64.7992V34.3489H76.6939V32.2266Z" fill="white"/>
<path d="M28.8017 38.7402H17.6216V40.8626H28.8017V38.7402Z" fill="#C8C8C8"/>
<path d="M43.9875 50.0693H14.2508V52.1917H43.9875V50.0693Z" fill="white"/>
<path d="M64.7992 50.0693H52.9072V52.1917H64.7992V50.0693Z" fill="#0BA4E0"/>
<path d="M32.0928 26.2822H14.2508V28.4046H32.0928V26.2822Z" fill="#0BA4E0"/>
<path d="M29.1205 14.3877H11.2784V16.51H29.1205V14.3877Z" fill="#0BA4E0"/>
<path d="M26.1455 20.335H8.30344V22.4573H26.1455V20.335Z" fill="#C8C8C8"/>
</svg>
