<svg width="90" height="90" viewBox="0 0 90 90" fill="none" xmlns="http://www.w3.org/2000/svg">
<path d="M71.25 13.125H18.75C16.6875 13.125 15 14.8125 15 16.875V28.125C15 30.1875 16.6875 31.875 18.75 31.875H71.25C73.3125 31.875 75 30.1875 75 28.125V16.875C75 14.8125 73.3125 13.125 71.25 13.125ZM71.25 35.625H18.75C16.6875 35.625 15 37.3125 15 39.375V50.625C15 52.6875 16.6875 54.375 18.75 54.375H71.25C73.3125 54.375 75 52.6875 75 50.625V39.375C75 37.3125 73.3125 35.625 71.25 35.625ZM71.25 58.125H18.75C16.6875 58.125 15 59.8125 15 61.875V73.125C15 75.1875 16.6875 76.875 18.75 76.875H71.25C73.3125 76.875 75 75.1875 75 73.125V61.875C75 59.8125 73.3125 58.125 71.25 58.125Z" fill="#D1C4E9"/>
<path d="M52.5 71.25C52.5 76.2228 54.4754 80.9919 57.9917 84.5083C61.5081 88.0246 66.2772 90 71.25 90C76.2228 90 80.9919 88.0246 84.5083 84.5083C88.0246 80.9919 90 76.2228 90 71.25C90 66.2772 88.0246 61.5081 84.5083 57.9917C80.9919 54.4754 76.2228 52.5 71.25 52.5C66.2772 52.5 61.5081 54.4754 57.9917 57.9917C54.4754 61.5081 52.5 66.2772 52.5 71.25Z" fill="#43A047"/>
<path d="M79.6875 62.4375L69 73.125L63.9375 68.0625L60 72.1875L69 81.1875L83.625 66.5625L79.6875 62.4375Z" fill="#DCEDC8"/>
</svg>
