<svg width="20" height="120" viewBox="0 0 20 120" fill="none" xmlns="http://www.w3.org/2000/svg">
<path d="M9.5 1V71" stroke="black" stroke-linecap="round"/>
<path d="M11.7727 82.3466L11.4318 81.142C11.6326 81.0663 11.8277 80.9545 12.017 80.8068C12.2102 80.6629 12.3693 80.4659 12.4943 80.2159C12.6193 79.9659 12.6818 79.6458 12.6818 79.2557C12.6818 78.7216 12.5587 78.2765 12.3125 77.9205C12.0701 77.5682 11.7614 77.392 11.3864 77.392C11.053 77.392 10.7898 77.5133 10.5966 77.7557C10.4034 77.9981 10.2424 78.3769 10.1136 78.892L9.79545 80.1875C9.60606 80.9678 9.31629 81.5492 8.92614 81.9318C8.53977 82.3144 8.04167 82.5057 7.43182 82.5057C6.93182 82.5057 6.48485 82.3617 6.09091 82.0739C5.69697 81.7898 5.38636 81.392 5.15909 80.8807C4.93182 80.3693 4.81818 79.7746 4.81818 79.0966C4.81818 78.2064 5.01136 77.4697 5.39773 76.8864C5.78409 76.303 6.34848 75.9337 7.09091 75.7784L7.40909 77.0511C6.93939 77.1723 6.58712 77.4015 6.35227 77.7386C6.11742 78.0795 6 78.5246 6 79.0739C6 79.6989 6.13258 80.1951 6.39773 80.5625C6.66667 80.9337 6.98864 81.1193 7.36364 81.1193C7.66667 81.1193 7.92045 81.0133 8.125 80.8011C8.33333 80.589 8.48864 80.2633 8.59091 79.8239L8.93182 78.3693C9.12121 77.5701 9.41477 76.983 9.8125 76.608C10.214 76.2367 10.7159 76.0511 11.3182 76.0511C11.8106 76.0511 12.2462 76.1894 12.625 76.4659C13.0038 76.7462 13.3011 77.1269 13.517 77.608C13.733 78.0928 13.8409 78.642 13.8409 79.2557C13.8409 80.1193 13.6515 80.7973 13.2727 81.2898C12.8939 81.786 12.3939 82.1383 11.7727 82.3466ZM4.81818 88.0696C4.81818 87.2514 5.01136 86.5469 5.39773 85.956C5.78409 85.3651 6.31629 84.9105 6.99432 84.5923C7.67235 84.2741 8.44697 84.1151 9.31818 84.1151C10.2045 84.1151 10.9867 84.2779 11.6648 84.6037C12.3466 84.9332 12.8788 85.3916 13.2614 85.9787C13.6477 86.5696 13.8409 87.259 13.8409 88.0469C13.8409 88.6605 13.7273 89.2135 13.5 89.706C13.2727 90.1984 12.9545 90.6018 12.5455 90.9162C12.1364 91.2306 11.6591 91.4257 11.1136 91.5014V90.1605C11.5114 90.0582 11.8636 89.831 12.1705 89.4787C12.4811 89.1302 12.6364 88.6605 12.6364 88.0696C12.6364 87.5469 12.5 87.0885 12.2273 86.6946C11.9583 86.3045 11.5777 85.9995 11.0852 85.7798C10.5966 85.5639 10.0227 85.456 9.36364 85.456C8.68939 85.456 8.10227 85.562 7.60227 85.7741C7.10227 85.9901 6.71402 86.2931 6.4375 86.6832C6.16098 87.0772 6.02273 87.5393 6.02273 88.0696C6.02273 88.4181 6.08333 88.7344 6.20455 89.0185C6.32576 89.3026 6.5 89.5431 6.72727 89.7401C6.95455 89.937 7.22727 90.0772 7.54545 90.1605V91.5014C7.0303 91.4257 6.56629 91.2382 6.15341 90.9389C5.74432 90.6435 5.41856 90.2514 5.17614 89.7628C4.9375 89.2779 4.81818 88.7135 4.81818 88.0696ZM5 93.4616H13.7273V94.7571H12.4091V94.848C12.8409 95.0071 13.1913 95.295 13.4602 95.7116C13.7292 96.1283 13.8636 96.598 13.8636 97.1207C13.8636 97.2192 13.8617 97.3423 13.858 97.4901C13.8542 97.6378 13.8485 97.7495 13.8409 97.8253H12.4773C12.4886 97.7798 12.5057 97.6757 12.5284 97.5128C12.5549 97.3537 12.5682 97.1851 12.5682 97.0071C12.5682 96.5829 12.4792 96.2041 12.3011 95.8707C12.1269 95.5412 11.8845 95.2798 11.5739 95.0866C11.267 94.8973 10.9167 94.8026 10.5227 94.8026H5L5 93.4616ZM4.81818 102.695C4.81818 101.907 5.00568 101.215 5.38068 100.621C5.75568 100.03 6.2803 99.5677 6.95455 99.2344C7.62879 98.9048 8.41667 98.7401 9.31818 98.7401C10.2273 98.7401 11.0208 98.9048 11.6989 99.2344C12.3769 99.5677 12.9034 100.03 13.2784 100.621C13.6534 101.215 13.8409 101.907 13.8409 102.695C13.8409 103.482 13.6534 104.172 13.2784 104.763C12.9034 105.357 12.3769 105.82 11.6989 106.149C11.0208 106.482 10.2273 106.649 9.31818 106.649C8.41667 106.649 7.62879 106.482 6.95455 106.149C6.2803 105.82 5.75568 105.357 5.38068 104.763C5.00568 104.172 4.81818 103.482 4.81818 102.695ZM6.02273 102.695C6.02273 103.293 6.17614 103.786 6.48295 104.172C6.78977 104.558 7.19318 104.844 7.69318 105.03C8.19318 105.215 8.73485 105.308 9.31818 105.308C9.90152 105.308 10.4451 105.215 10.9489 105.03C11.4527 104.844 11.8598 104.558 12.1705 104.172C12.4811 103.786 12.6364 103.293 12.6364 102.695C12.6364 102.096 12.4811 101.604 12.1705 101.217C11.8598 100.831 11.4527 100.545 10.9489 100.359C10.4451 100.174 9.90152 100.081 9.31818 100.081C8.73485 100.081 8.19318 100.174 7.69318 100.359C7.19318 100.545 6.78977 100.831 6.48295 101.217C6.17614 101.604 6.02273 102.096 6.02273 102.695ZM16.6364 110.037H5V108.696H16.6364V110.037ZM16.6364 113.834H5V112.493H16.6364V113.834Z" fill="black"/>
</svg>
